<svg width="25" height="27" viewBox="0 0 25 27" fill="none" xmlns="http://www.w3.org/2000/svg">
<path d="M20.7485 14.531C20.7355 12.3806 21.8162 10.7576 24.0037 9.56225C22.7798 7.98608 20.9308 7.1189 18.4894 6.94897C16.1782 6.78491 13.6522 8.16186 12.7277 8.16186C11.7511 8.16186 9.51156 7.00757 7.75374 7.00757C4.12093 7.0603 0.260254 9.61499 0.260254 14.8123C0.260254 16.3474 0.572754 17.9333 1.19775 19.5701C2.03109 21.7205 5.0389 26.9939 8.17692 26.906C9.81754 26.8708 10.9764 25.8572 13.1118 25.8572C15.1821 25.8572 16.2563 26.906 18.0858 26.906C21.2498 26.865 23.9712 22.072 24.7655 19.9158C20.5207 18.1169 20.7485 14.6423 20.7485 14.531ZM17.0636 4.90991C18.841 3.01147 18.6782 1.28296 18.6261 0.661865C17.0571 0.743896 15.2407 1.6228 14.2056 2.70679C13.0662 3.86694 12.3957 5.30249 12.5389 6.91968C14.2381 7.03687 15.7876 6.25171 17.0636 4.90991Z" fill="black"/>
</svg>
